<svg xmlns:xlink="http://www.w3.org/1999/xlink" class="img-fluid" id="outputsvg" xmlns="http://www.w3.org/2000/svg" style="transform: matrix(1, 0, 0, 1, 0, 0); transform-origin: 50% 50%; cursor: move; max-height: none; transition: transform 200ms ease-in-out 0s;" width="500" height="500" viewBox="0 0 5000 5000"><g id="l2RZ6VV7coPzMAOHBJbFuVq" fill="#0A6754" style="transform: none;"><g style="transform: none;" fill="#0A6754"><path id="ps5KRxNB8" d="M485 3454 c-167 -92 -288 -166 -300 -182 -12 -16 -21 -48 -23 -82 -4 -48 0 -65 27 -116 71 -137 482 -821 511 -851 38 -38 90 -57 137 -50 19 3 66 24 105 47 39 22 76 39 82 37 7 -3 24 -27 39 -54 27 -50 27 -50 -156 -164 -100 -62 -201 -131 -225 -153 -99 -91 -144 -256 -107 -392 64 -238 333 -370 550 -270 44 20 223 127 341 203 20 13 23 10 58 -48 29 -48 34 -64 24 -70 -160 -94 -187 -125 -188 -212 0 -60 -4 -53 283 -542 252 -431 267 -450 353 -462 32 -4 52 2 108 32 37 20 80 44 95 54 14 10 105 67 201 126 96 60 186 118 198 129 36 32 52 70 52 123 0 53 9 35 -195 386 -61 103 -127 218 -149 255 -191 330 -207 349 -301 360 -41 4 -53 0 -129 -47 -46 -28 -86 -51 -89 -51 -4 0 -18 20 -33 45 -14 25 -32 45 -40 45 -32 0 7 35 117 104 144 90 159 114 141 219 -7 38 -26 102 -43 143 -62 149 -211 336 -303 383 -70 34 -99 29 -214 -44 -102 -64 -102 -64 -128 -14 -14 28 -24 52 -22 53 2 2 38 23 82 47 85 48 114 80 123 133 12 77 23 56 -317 631 -217 369 -211 360 -260 385 -80 41 -98 35 -405 -136z m386 -13 c22 -34 39 -65 39 -67 0 -2 14 -26 30 -52 17 -27 30 -55 30 -63 0 -20 -211 -140 -226 -128 -17 14 -145 240 -142 250 5 14 202 128 217 126 8 -1 31 -31 52 -66z m-283 -227 c40 -69 72 -128 72 -132 0 -5 -50 -36 -111 -71 -94 -55 -112 -62 -124 -50 -30 30 -144 244 -135 253 10 10 212 126 220 126 3 0 38 -56 78 -126z m501 -148 c39 -68 71 -128 71 -134 0 -15 -200 -133 -218 -130 -13 3 -152 231 -152 248 0 7 208 135 226 140 1 0 34 -56 73 -124z m-353 -108 c121 -208 117 -199 103 -213 -29 -28 -212 -126 -220 -118 -11 11 -139 233 -142 245 -2 10 199 137 218 138 6 0 25 -24 41 -52z m545 -224 c40 -71 68 -129 63 -134 -16 -16 -205 -120 -218 -120 -6 0 -42 53 -79 118 -62 110 -79 152 -59 152 4 0 52 27 107 59 54 33 103 58 107 55 3 -2 39 -61 79 -130z m-319 -165 c37 -63 67 -121 68 -129 0 -15 -216 -148 -225 -139 -10 11 -145 249 -145 256 0 8 56 43 184 116 17 9 35 16 41 14 5 -2 40 -55 77 -118z m1136 -1264 c39 -68 72 -126 72 -129 0 -4 -217 -136 -224 -136 -6 0 -156 249 -156 258 1 4 35 27 78 51 42 25 88 53 101 63 13 10 31 18 40 18 10 0 43 -47 89 -125z m-308 -187 c51 -84 70 -125 64 -135 -5 -8 -54 -40 -109 -73 -77 -45 -103 -56 -112 -47 -20 20 -143 227 -143 242 0 13 194 134 216 135 6 0 44 -55 84 -122z m499 -134 c60 -102 72 -128 60 -135 -12 -8 -189 -113 -211 -126 -8 -4 -150 232 -152 253 -1 15 188 133 214 133 9 1 46 -52 89 -125z m-309 -183 c38 -65 70 -122 70 -128 0 -6 -49 -40 -109 -76 -100 -59 -111 -64 -124 -49 -25 31 -137 228 -137 243 1 15 210 140 222 133 4 -3 39 -58 78 -123z m499 -137 c63 -107 72 -127 60 -139 -20 -19 -196 -125 -208 -125 -10 0 -146 221 -153 248 -3 11 195 141 217 141 6 1 43 -56 84 -125z m-309 -186 c40 -68 75 -126 77 -130 3 -7 -210 -138 -225 -138 -8 0 -152 242 -152 256 0 8 207 134 221 134 4 0 39 -55 79 -122z" fill="#0A6754"></path><path id="p13aFCaQzs" d="M2049 3108 c-24 -8 -49 -44 -49 -70 0 -5 -21 -33 -46 -61 -60 -67 -91 -121 -125 -220 -25 -70 -29 -97 -29 -190 0 -128 10 -175 60 -282 134 -284 451 -424 754 -335 42 13 76 27 76 33 0 5 12 2 26 -7 34 -23 73 -17 98 17 17 23 18 32 10 55 -12 29 -664 1003 -696 1039 -25 26 -46 32 -79 21z" fill="#0A6754"></path></g></g><g id="l5dKNUBOah9owre9U4O29rx" fill="#608C01" style="transform: none;"><g style="transform: none;" fill="#608C01"><path id="p1Bv0P0sVv" d="M2840 4993 c0 -13 150 -230 215 -311 90 -112 263 -283 384 -380 398 -320 907 -539 1443 -621 118 -18 118 -18 118 650 0 669 0 669 -1080 669 -594 0 -1080 -3 -1080 -7z" fill="#608C01"></path><path id="pHhAMBHIk" d="M1950 2973 c-57 -65 -88 -119 -121 -216 -25 -70 -29 -97 -29 -190 0 -128 10 -175 60 -282 134 -284 451 -424 754 -335 42 13 76 27 76 32 0 5 -93 148 -207 316 -388 577 -476 707 -483 715 -4 5 -26 -13 -50 -40z" fill="#608C01"></path><path id="pvhJ1BRR9" d="M1412 2355 c-57 -36 -105 -65 -107 -65 -1 0 -32 -18 -66 -40 -35 -22 -77 -47 -94 -56 -16 -9 -39 -24 -50 -34 -11 -9 -99 -66 -195 -126 -211 -131 -249 -164 -296 -259 -139 -282 83 -608 397 -582 104 9 109 12 601 316 388 239 391 242 370 364 -7 38 -26 102 -43 143 -62 149 -211 336 -303 383 -70 34 -99 29 -214 -44z" fill="#608C01"></path></g></g><g id="l6dREGhLM1gyRC27zt0FsKv" fill="#7FA433" style="transform: none;"><g style="transform: none;" fill="#7FA433"><path id="p1G7rRTu3D" d="M3060 4985 c0 -17 296 -318 385 -392 120 -99 223 -173 340 -246 147 -91 333 -195 400 -223 28 -12 88 -38 135 -59 85 -37 339 -130 395 -145 17 -5 80 -22 140 -39 61 -17 118 -31 128 -31 16 0 17 34 17 575 0 575 0 575 -970 575 -848 0 -970 -2 -970 -15z" fill="#7FA433"></path></g></g><g id="l2uj8aa68iB3lGXbWyVOATI" fill="#FFD129" style="transform: none;"><g style="transform: none;" fill="#FFD129"><path id="pWAKD5maA" d="M2674 3025 c-20 -95 -20 -95 31 -109 99 -29 158 -134 125 -222 -6 -15 -9 -28 -8 -30 2 -1 48 -12 103 -23 113 -24 119 -22 111 46 -15 118 -89 257 -184 344 -51 47 -120 88 -147 89 -6 0 -20 -43 -31 -95z" fill="#FFD129"></path></g></g><g id="lPt5CTo38zbVkcO6JFtgF1" fill="#FFDA53" style="transform: none;"><g style="transform: none;" fill="#FFDA53"><path id="pyaUcCw5V" d="M2785 3527 c-11 -36 -48 -218 -44 -220 2 -1 38 -18 79 -37 61 -28 93 -53 170 -130 138 -137 196 -260 222 -467 10 -82 14 -94 32 -98 111 -24 181 -34 187 -28 15 15 21 167 10 243 -45 319 -287 617 -588 727 -47 17 -65 20 -68 10z" fill="#FFDA53"></path></g></g><g id="l5ORaCzCgc2A4ptROnqiZh9" fill="#FFE37F" style="transform: none;"><g style="transform: none;" fill="#FFE37F"><path id="pW1dajlps" d="M2847 3841 c-15 -54 -27 -103 -27 -109 0 -6 30 -20 68 -32 338 -108 600 -368 711 -708 41 -125 54 -219 50 -370 -4 -132 -4 -132 51 -142 30 -6 75 -15 100 -20 25 -5 48 -6 52 -2 16 17 30 194 25 312 -7 136 -23 222 -63 345 -102 310 -355 595 -648 730 -81 38 -247 95 -275 95 -12 0 -23 -24 -44 -99z" fill="#FFE37F"></path></g></g></svg>